<svg id="e9hA2MomN6f1" xmlns="http://www.w3.org/2000/svg" xmlns:xlink="http://www.w3.org/1999/xlink" viewBox="0 0 512 512" shape-rendering="geometricPrecision" text-rendering="geometricPrecision"><path d="M457.127,9.186h-402.255c-25.231,0-45.686,20.455-45.686,45.686v402.254c0,25.233,20.455,45.686,45.686,45.686h402.254c25.231,0,45.686-20.455,45.686-45.686v-402.254c.002-25.231-20.453-45.686-45.685-45.686Z" fill="#353640"/><rect width="243.642" height="72.546" rx="0" ry="0" transform="translate(134.18 219.734)" fill="#fff907"/><path d="M70.427,457.127v-402.255c0-25.231,20.455-45.686,45.686-45.686h-61.241c-25.231,0-45.686,20.455-45.686,45.686v402.254c0,25.231,20.455,45.686,45.686,45.686h61.241c-25.231.002-45.686-20.453-45.686-45.685Z" opacity="0.1"/><path d="M147.302,18.372h309.826c20.126,0,36.5,16.375,36.5,36.5v402.254c0,20.126-16.373,36.5-36.5,36.5h-57.512c-5.073,0-9.186,4.113-9.186,9.186s4.113,9.186,9.186,9.186h57.512c30.257,0,54.872-24.615,54.872-54.872v-402.254C512,24.615,487.385,0,457.128,0h-309.826c-5.073,0-9.186,4.113-9.186,9.186s4.113,9.186,9.186,9.186Z" fill="#350d0d"/><path d="M54.873,512h307.998c5.073,0,9.186-4.113,9.186-9.186s-4.113-9.186-9.186-9.186h-307.998c-20.126,0-36.501-16.373-36.501-36.5v-402.256c0-20.125,16.375-36.5,36.501-36.5h55.684c5.073,0,9.186-4.113,9.186-9.186s-4.112-9.186-9.185-9.186h-55.685C24.617,0,0,24.615,0,54.872v402.254C0,487.383,24.617,512,54.873,512Z" fill="#350d0d"/><path d="M134.178,301.458h243.642c5.073,0,9.186-4.113,9.186-9.186v-72.543c0-5.073-4.113-9.186-9.186-9.186h-243.642c-5.073,0-9.186,4.113-9.186,9.186v72.543c0,5.073,4.113,9.186,9.186,9.186Zm9.187-72.543h225.27v54.17h-225.27c0,0,0-54.17,0-54.17Z" fill="#350d0d"/></svg>
