<?xml version="1.0" encoding="iso-8859-1"?>
<!-- Uploaded to: SVG Repo, www.svgrepo.com, Generator: SVG Repo Mixer Tools -->
<svg version="1.1" id="Layer_1" xmlns="http://www.w3.org/2000/svg" xmlns:xlink="http://www.w3.org/1999/xlink" 
	 viewBox="0 0 512 512" xml:space="preserve">
<path style="fill:#353640;" d="M457.127,9.186H54.872c-25.231,0-45.686,20.455-45.686,45.686v402.254
	c0,25.233,20.455,45.686,45.686,45.686h402.254c25.231,0,45.686-20.455,45.686-45.686V54.872
	C502.814,29.641,482.359,9.186,457.127,9.186z"/>
<rect x="134.18" y="219.734" style="fill:#DCE5FA;" width="243.642" height="72.546"/>
<path style="opacity:0.1;enable-background:new    ;" d="M70.427,457.127V54.872c0-25.231,20.455-45.686,45.686-45.686H54.872
	c-25.231,0-45.686,20.455-45.686,45.686v402.254c0,25.231,20.455,45.686,45.686,45.686h61.241
	C90.882,502.814,70.427,482.359,70.427,457.127z"/>
<path d="M147.302,18.372h309.826c20.126,0,36.5,16.375,36.5,36.5v402.254c0,20.126-16.373,36.5-36.5,36.5h-57.512
	c-5.073,0-9.186,4.113-9.186,9.186c0,5.073,4.113,9.186,9.186,9.186h57.512c30.257,0,54.872-24.615,54.872-54.872V54.872
	C512,24.615,487.385,0,457.128,0H147.302c-5.073,0-9.186,4.113-9.186,9.186S142.229,18.372,147.302,18.372z"/>
<path d="M54.873,512h307.998c5.073,0,9.186-4.113,9.186-9.186s-4.113-9.186-9.186-9.186H54.873c-20.126,0-36.501-16.373-36.501-36.5
	V54.872c0-20.125,16.375-36.5,36.501-36.5h55.684c5.073,0,9.186-4.113,9.186-9.186S115.631,0,110.558,0H54.873
	C24.617,0,0,24.615,0,54.872v402.254C0,487.383,24.617,512,54.873,512z"/>
<path d="M134.178,301.458H377.82c5.073,0,9.186-4.113,9.186-9.186v-72.543c0-5.073-4.113-9.186-9.186-9.186H134.178
	c-5.073,0-9.186,4.113-9.186,9.186v72.543C124.992,297.345,129.105,301.458,134.178,301.458z M143.365,228.915h225.27v54.17h-225.27
	C143.365,283.085,143.365,228.915,143.365,228.915z"/>
</svg>